PathFileType	4	(X/Y/Z)	C:\Users\dbl\Desktop\20210112(1)\20210112\bx_y_5_1802.trc
DataRate	CameraRate	NumFrames	NumMarkers	Units	OrigDataRate	OrigDataStartFrame	OrigNumFrames
50.00	50.00	       5	43	mm	50.00	60	       478
Frame#	Time	Top.Head			R.Acromium			L.Acromium			Sternum			R.ASIS			L.ASIS			V.Sacral			R.Thigh.Upper			R.Thigh.Front			R.Thigh.Rear			R.Knee.Lat			R.Knee.Med			R.Shank.Upper			R.Shank.Front			R.Shank.Rear			R.Ankle.Lat			R.Midfoot.Lat			R.Toe.Lat			R.Toe.Tip			R.Toe.Med			R.Ankle.Med			R.Midfoot.Sup			R.Heel			L.Thigh.Upper			L.Thigh.Front			L.Thigh.Rear			L.Knee.Lat			L.Knee.Med			L.Shank.Upper			L.Shank.Front			L.Shank.Rear			L.Ankle.Lat			L.Midfoot.Lat			L.Toe.Lat			L.Toe.Tip			L.Toe.Med			L.Ankle.Med			L.Midfoot.Sup			L.Heel			origin1 front left			origin2 front right			origin 3 back right			origin 4 back leftt			
		X1	Y1	Z1	X2	Y2	Z2	X3	Y3	Z3	X4	Y4	Z4	X5	Y5	Z5	X6	Y6	Z6	X7	Y7	Z7	X8	Y8	Z8	X9	Y9	Z9	X10	Y10	Z10	X11	Y11	Z11	X12	Y12	Z12	X13	Y13	Z13	X14	Y14	Z14	X15	Y15	Z15	X16	Y16	Z16	X17	Y17	Z17	X18	Y18	Z18	X19	Y19	Z19	X20	Y20	Z20	X21	Y21	Z21	X22	Y22	Z22	X23	Y23	Z23	X24	Y24	Z24	X25	Y25	Z25	X26	Y26	Z26	X27	Y27	Z27	X28	Y28	Z28	X29	Y29	Z29	X30	Y30	Z30	X31	Y31	Z31	X32	Y32	Z32	X33	Y33	Z33	X34	Y34	Z34	X35	Y35	Z35	X36	Y36	Z36	X37	Y37	Z37	X38	Y38	Z38	X39	Y39	Z39	X40	Y40	Z40	X41	Y41	Z41	X42	Y42	Z42	X43	Y43	Z43	

60	1.180	-325.74921	105.00743	1575.36963	-519.62494	-58.33103	1378.93066	-529.30688	271.59180	1364.16833	-543.96448	94.16715	1231.73267	-766.17041	-9.59453	972.62732	-758.20856	209.54063	971.02954	-966.75470	96.65383	1000.55444	-767.16943	-79.26841	823.01263	-685.52325	-19.35359	808.35773	-714.10620	-68.38525	680.78198	-666.68744	-49.12590	604.67102	-632.77704	59.82985	571.86298	-663.29401	-46.23750	554.47906	-615.75043	-3.93528	505.60410	-721.85498	-47.78261	481.91888	-763.88745	-5.56543	206.43805	-666.83466	-69.84106	160.73123	-625.25964	-81.24529	157.55690	-561.23395	-44.24863	163.47725	-602.07184	16.11302	167.96869	-707.57196	75.71864	214.98221	-672.90985	53.32412	159.00526	-791.74823	57.96671	176.17270	-761.76697	285.63763	833.74603	-685.62274	217.99178	819.34442	-723.93726	288.03290	707.39673	-670.72394	263.62262	609.59863	-608.76202	161.94263	567.78564	-648.96741	263.10754	560.06537	-595.85419	220.86540	515.10834	-698.61908	267.21976	493.06680	-765.65479	223.96315	205.02986	-666.82996	299.14706	160.28421	-630.00897	307.86981	161.45671	-562.41815	264.59869	165.59694	-594.30219	225.17065	173.72032	-703.01874	153.51295	212.27869	-673.46368	173.64247	155.95984	-793.27832	170.86725	186.26268	-528.13049	304.39154	146.39909	-517.65796	-72.40912	142.53082	-875.97900	-78.89456	141.19386	-882.57031	296.09128	144.58488	
61	1.200	-322.36636	105.76865	1562.29907	-516.58411	-57.64468	1366.05334	-525.34106	272.32013	1351.94165	-543.53387	94.75246	1222.69189	-770.14142	-8.66964	966.45837	-762.52747	210.44786	964.43207	-970.78815	97.53108	995.27167	-769.87128	-78.79176	819.25134	-687.13464	-19.77476	806.37231	-713.55170	-68.93449	678.08337	-664.21106	-49.93895	603.33826	-629.71716	59.29003	570.99902	-660.50299	-46.97712	553.43140	-612.96423	-4.61275	504.63696	-719.31122	-48.05381	481.28088	-763.53979	-5.55849	206.67960	-666.93604	-69.79082	160.66612	-625.15143	-81.25478	157.65788	-561.18695	-44.24960	163.43939	-602.17279	16.10238	167.86555	-707.34174	75.70444	214.80493	-672.95593	53.40601	158.81236	-791.67041	58.05031	176.21475	-763.90338	286.76129	829.72107	-687.39563	219.48444	817.22595	-724.05719	289.27106	704.53186	-668.55688	264.70175	607.77020	-605.76978	163.04204	567.09906	-646.13843	264.38077	559.01105	-593.16919	221.78314	514.11078	-696.14093	267.94641	492.19263	-765.48279	224.01068	205.03651	-666.82159	299.14804	160.30666	-630.00409	307.85440	161.47087	-562.42804	264.59683	165.59149	-594.29370	225.16890	173.68195	-702.67853	153.48662	212.12543	-673.51099	173.61574	155.90440	-793.20746	170.81947	186.30954	-528.14526	304.37845	146.42200	-517.65918	-72.40325	142.52101	-875.98383	-78.87048	141.21625	-882.56250	296.08801	144.59303	
62	1.220	-319.17676	106.59990	1549.01086	-513.57709	-56.94869	1352.69971	-521.35059	273.06931	1339.33105	-543.12189	95.30049	1213.94409	-773.98145	-7.68915	959.94885	-766.67767	211.26523	957.30139	-974.70251	98.60618	989.51410	-772.30579	-78.44920	815.16156	-688.68427	-20.34671	804.18433	-713.02686	-69.61018	675.25836	-661.61786	-50.77344	601.82996	-626.47900	58.79076	569.96930	-657.61029	-47.78870	552.27057	-610.14972	-5.41978	503.60980	-716.63867	-48.38342	480.68552	-763.12329	-5.53673	206.96291	-667.01459	-69.75001	160.60573	-625.11084	-81.28717	157.76712	-561.13159	-44.28332	163.38437	-602.20605	16.07386	167.79517	-707.14020	75.66879	214.53444	-672.96808	53.45765	158.64931	-791.56818	58.16819	176.25710	-765.60608	287.80902	825.32501	-688.85052	220.85945	814.87531	-723.90540	290.31207	701.36078	-666.14038	265.56189	605.56104	-602.56525	164.03438	566.36871	-643.05182	265.50385	557.78735	-590.15643	222.62358	513.02356	-693.44006	268.58066	491.29593	-765.29871	223.99962	205.12961	-666.78357	299.09259	160.38947	-629.99426	307.79657	161.48218	-562.39752	264.57803	165.60155	-594.24182	225.11537	173.57491	-702.30597	153.41725	211.95921	-673.58112	173.53729	155.79442	-793.12799	170.79443	186.35895	-528.16602	304.36823	146.46597	-517.65857	-72.40098	142.49940	-875.99469	-78.83809	141.24480	-882.56195	296.09235	144.59612	
63	1.240	-316.17148	107.53013	1535.55151	-510.62106	-56.22939	1338.87122	-517.33813	273.80670	1326.35791	-542.71350	95.82859	1205.45117	-777.68219	-6.58716	953.15021	-770.34760	212.08556	949.82635	-978.34009	99.90517	983.32367	-774.36987	-78.23734	810.88672	-690.19025	-20.89036	801.91479	-712.54504	-70.36698	672.50159	-659.02710	-51.56273	600.18896	-623.08807	58.28382	568.89294	-654.58313	-48.61440	551.06177	-607.32080	-6.22707	502.49893	-713.90466	-48.81624	480.16431	-762.71130	-5.46370	207.18410	-667.00043	-69.69431	160.62677	-625.10077	-81.32405	157.85513	-561.09210	-44.36749	163.33290	-602.15509	16.06261	167.76271	-706.89941	75.66192	214.15300	-672.94977	53.47971	158.51360	-791.44470	58.34453	176.30280	-766.97742	288.85913	820.56622	-690.00171	222.13628	812.31000	-723.43701	291.04895	697.73828	-663.67139	266.16794	602.90326	-599.31720	164.86931	565.57263	-639.76794	266.51862	556.41522	-586.83899	223.47215	511.82880	-690.52606	269.22128	490.37347	-765.06866	223.94844	205.23857	-666.72443	299.00433	160.49838	-629.96399	307.71194	161.48569	-562.32306	264.55740	165.62775	-594.15375	225.02652	173.43486	-701.88763	153.29276	211.80721	-673.63696	173.43944	155.65956	-793.02716	170.78642	186.42163	-528.18390	304.37585	146.50117	-517.64636	-72.42818	142.46468	-876.01007	-78.81799	141.25815	-882.57208	296.10822	144.59134	
64	1.260	-313.35400	108.55531	1521.97632	-507.67807	-55.51049	1324.66382	-513.33124	274.52228	1313.01880	-542.30194	96.34127	1197.19373	-781.26776	-5.37321	946.17749	-773.34888	212.98309	942.20844	-981.66663	101.36250	976.80707	-776.18195	-78.11527	806.55652	-691.69299	-21.29052	799.60388	-712.10199	-71.16782	669.89252	-656.49951	-52.31327	598.43671	-619.62305	57.62947	567.89056	-651.44781	-49.45808	549.85028	-604.43488	-6.96912	501.34885	-711.15924	-49.34541	479.65921	-762.35468	-5.30149	207.26921	-666.92401	-69.60619	160.72787	-625.10193	-81.35147	157.90147	-561.04694	-44.47900	163.28513	-602.05127	16.09525	167.74191	-706.60309	75.72231	213.70496	-672.91919	53.48985	158.39455	-791.28387	58.62587	176.35962	-768.04462	289.93777	815.54956	-690.90295	223.33456	809.52466	-722.40411	291.42075	693.41992	-661.25806	266.59592	599.91681	-596.21130	165.49458	564.67706	-636.31519	267.50320	554.92859	-583.29871	224.34924	510.50748	-687.42694	269.95871	489.40552	-764.78467	223.89061	205.31528	-666.65112	298.91794	160.59102	-629.90411	307.63504	161.49387	-562.21387	264.54807	165.66174	-594.04346	224.93318	173.30176	-701.44983	153.12430	211.66557	-673.65375	173.35133	155.52451	-792.88428	170.76950	186.50459	-528.18860	304.39746	146.52228	-517.62830	-72.46455	142.42783	-876.01697	-78.82281	141.24916	-882.58722	296.13293	144.58699	
